<svg width="20" height="20" viewBox="0 0 20 20" fill="none" xmlns="http://www.w3.org/2000/svg">
<path d="M9 10C10.1046 10 11 8.88071 11 7.5C11 6.11929 10.1046 5 9 5C7.89543 5 7 6.11929 7 7.5C7 8.88071 7.89543 10 9 10Z" stroke="#B5977F" stroke-width="2" stroke-linecap="round" stroke-linejoin="round"/>
<path d="M9 2C7.4087 2 5.88258 2.59 4.75736 3.6402C3.63214 4.69041 3 6.11479 3 7.6C3 8.9244 3.3015 9.791 4.125 10.75L9 16L13.875 10.75C14.6985 9.791 15 8.9244 15 7.6C15 6.11479 14.3679 4.69041 13.2426 3.6402C12.1174 2.59 10.5913 2 9 2V2Z" stroke="#B5977F" stroke-width="2" stroke-linecap="round" stroke-linejoin="round"/>
</svg>
