<svg width="22" height="22" viewBox="0 0 22 22" fill="none" xmlns="http://www.w3.org/2000/svg">
<path d="M15.147 5.6264L16.9934 7.47192M16.3344 4.00056L11.3418 8.99315C11.0838 9.25075 10.9079 9.57896 10.8362 9.9364L10.375 12.2448L12.6834 11.7828C13.0409 11.7113 13.3686 11.5361 13.6267 11.278L18.6193 6.28545C18.7693 6.13542 18.8883 5.95731 18.9695 5.76129C19.0507 5.56527 19.0925 5.35518 19.0925 5.14301C19.0925 4.93083 19.0507 4.72074 18.9695 4.52472C18.8883 4.3287 18.7693 4.15059 18.6193 4.00056C18.4692 3.85053 18.2911 3.73152 18.0951 3.65033C17.8991 3.56913 17.689 3.52734 17.4768 3.52734C17.2646 3.52734 17.0546 3.56913 16.8585 3.65033C16.6625 3.73152 16.4844 3.85053 16.3344 4.00056V4.00056Z" stroke="#544A0C" stroke-width="1.74353" stroke-linecap="round" stroke-linejoin="round"/>
<path d="M17.3499 13.9891V16.6044C17.3499 17.0668 17.1662 17.5103 16.8392 17.8373C16.5122 18.1642 16.0688 18.3479 15.6064 18.3479H6.01696C5.55455 18.3479 5.11108 18.1642 4.7841 17.8373C4.45713 17.5103 4.27344 17.0668 4.27344 16.6044V7.01501C4.27344 6.5526 4.45713 6.10913 4.7841 5.78215C5.11108 5.45518 5.55455 5.27148 6.01696 5.27148H8.63225" stroke="#544A0C" stroke-width="1.74353" stroke-linecap="round" stroke-linejoin="round"/>
</svg>
