<svg width="118" height="118" viewBox="0 0 118 118" fill="none" xmlns="http://www.w3.org/2000/svg">
<path fill-rule="evenodd" clip-rule="evenodd" d="M59.0007 103.251C83.4389 103.251 103.251 83.4389 103.251 59.0007C103.251 34.5624 83.4389 14.7507 59.0007 14.7507C34.5624 14.7507 14.7507 34.5624 14.7507 59.0007C14.7507 83.4389 34.5624 103.251 59.0007 103.251ZM59.0007 108.167C86.1554 108.167 108.167 86.1554 108.167 59.0007C108.167 31.8459 86.1554 9.83398 59.0007 9.83398C31.8459 9.83398 9.83398 31.8459 9.83398 59.0007C9.83398 86.1554 31.8459 108.167 59.0007 108.167Z" fill="#EBB478"/>
<path d="M29.5 87.5918C29.5 85.0524 31.3978 82.9062 33.925 82.626C52.891 80.5266 65.195 80.7159 84.1192 82.6727C85.0643 82.7719 85.9599 83.1442 86.6968 83.7441C87.4337 84.344 87.98 85.1455 88.2689 86.0507C88.5577 86.956 88.5767 87.9257 88.3235 88.8416C88.0704 89.7574 87.5559 90.5797 86.8431 91.208C64.5091 110.676 51.7455 110.408 31.0733 91.2277C30.0654 90.2935 29.5 88.966 29.5 87.5943V87.5918Z" fill="#EBB478"/>
<path fill-rule="evenodd" clip-rule="evenodd" d="M83.8674 85.1149C65.0931 83.1728 52.9661 82.9909 34.1943 85.0682C33.5764 85.1402 33.0067 85.4376 32.5944 85.9034C32.1821 86.3692 31.9561 86.9708 31.9596 87.5929C31.9596 88.296 32.2522 88.9622 32.7463 89.4243C42.9926 98.9283 50.7561 103.223 58.3449 103.25C65.9609 103.277 74.1422 99.0168 85.2293 89.3555C85.5815 89.042 85.8351 88.6329 85.9591 88.178C86.0832 87.7231 86.0725 87.2419 85.9282 86.793C85.784 86.3441 85.5124 85.9467 85.1465 85.6492C84.7807 85.3518 84.3363 85.167 83.8674 85.1173V85.1149ZM33.6559 80.181C52.8211 78.0595 65.3045 78.2512 84.3762 80.2253C85.7979 80.3736 87.1454 80.9333 88.2539 81.8358C89.3624 82.7382 90.1837 83.9443 90.6172 85.3063C91.0508 86.6684 91.0779 88.1273 90.6951 89.5045C90.3123 90.8816 89.5362 92.1173 88.462 93.0602C77.2151 102.864 67.8489 108.204 58.3302 108.167C48.7845 108.132 39.8312 102.702 29.4054 93.0283C28.659 92.333 28.0639 91.4912 27.6574 90.5556C27.2509 89.62 27.0418 88.6105 27.043 87.5904C27.0394 85.7576 27.7121 83.9878 28.9324 82.6202C30.1526 81.2525 31.8345 80.3831 33.6559 80.1786V80.181Z" fill="#EBB478"/>
<path d="M78.6673 49.1667C78.6673 54.3826 76.5953 59.3849 72.9071 63.0731C69.2189 66.7613 64.2166 68.8333 59.0007 68.8333C53.7847 68.8333 48.7824 66.7613 45.0942 63.0731C41.406 59.3849 39.334 54.3826 39.334 49.1667C39.334 43.9507 41.406 38.9484 45.0942 35.2602C48.7824 31.572 53.7847 29.5 59.0007 29.5C64.2166 29.5 69.2189 31.572 72.9071 35.2602C76.5953 38.9484 78.6673 43.9507 78.6673 49.1667Z" fill="#EBB478"/>
<path fill-rule="evenodd" clip-rule="evenodd" d="M59.0007 63.9167C62.9126 63.9167 66.6643 62.3627 69.4305 59.5965C72.1966 56.8303 73.7507 53.0786 73.7507 49.1667C73.7507 45.2547 72.1966 41.503 69.4305 38.7368C66.6643 35.9707 62.9126 34.4167 59.0007 34.4167C55.0887 34.4167 51.337 35.9707 48.5708 38.7368C45.8047 41.503 44.2507 45.2547 44.2507 49.1667C44.2507 53.0786 45.8047 56.8303 48.5708 59.5965C51.337 62.3627 55.0887 63.9167 59.0007 63.9167ZM59.0007 68.8333C64.2166 68.8333 69.2189 66.7613 72.9071 63.0731C76.5953 59.3849 78.6673 54.3826 78.6673 49.1667C78.6673 43.9507 76.5953 38.9484 72.9071 35.2602C69.2189 31.572 64.2166 29.5 59.0007 29.5C53.7847 29.5 48.7824 31.572 45.0942 35.2602C41.406 38.9484 39.334 43.9507 39.334 49.1667C39.334 54.3826 41.406 59.3849 45.0942 63.0731C48.7824 66.7613 53.7847 68.8333 59.0007 68.8333Z" fill="#EBB478"/>
<path d="M112 88.4009L108.3 84.7009C107.982 84.3977 107.559 84.2285 107.12 84.2285C106.681 84.2285 106.258 84.3977 105.94 84.7009L102.65 88.0009H85C84.4696 88.0009 83.9609 88.2116 83.5858 88.5867C83.2107 88.9618 83 89.4705 83 90.0009V112.001C83 112.531 83.2107 113.04 83.5858 113.415C83.9609 113.79 84.4696 114.001 85 114.001H107C107.53 114.001 108.039 113.79 108.414 113.415C108.789 113.04 109 112.531 109 112.001V93.7609L112 90.7609C112.313 90.4478 112.488 90.0234 112.488 89.5809C112.488 89.1384 112.313 88.714 112 88.4009ZM97.83 102.131L93.64 103.061L94.64 98.9109L104.19 89.3409L107.42 92.5709L97.83 102.131ZM108.5 91.4309L105.27 88.2009L107.12 86.3509L110.35 89.5809L108.5 91.4309Z" fill="#544A0C"/>
</svg>
