<svg width="22" height="23" viewBox="0 0 22 23" fill="none" xmlns="http://www.w3.org/2000/svg">
<path d="M20.9994 19.6724V16.6616C21.0116 16.1694 20.8422 15.6899 20.5232 15.3142C19.6238 14.2549 16.5394 13.5773 15.3167 13.8375C14.3637 14.0404 13.6968 14.9973 13.0449 15.648C10.5274 14.2192 8.44286 12.1389 7.01133 9.62618C7.66322 8.97561 8.62209 8.31013 8.82538 7.35893C9.08571 6.14059 8.40903 3.07582 7.35702 2.17288C6.98699 1.85528 6.51385 1.6828 6.02583 1.6876H3.00901C1.85953 1.68868 0.903194 2.71967 1.00785 3.87549C0.999994 13.8375 8.77782 21.6875 18.8072 21.6797C19.9692 21.7845 21.004 20.8234 20.9994 19.6724Z" stroke="#544A0C" stroke-width="1.5" stroke-linecap="round" stroke-linejoin="round"/>
</svg>
