<svg width="20" height="20" viewBox="0 0 20 20" fill="none" xmlns="http://www.w3.org/2000/svg">
<path d="M18.793 10.0949L10.6356 0.705382C10.2921 0.309144 9.63224 0.309144 9.28872 0.705382L1.13136 10.0949C1.01395 10.2297 0.936875 10.397 0.909521 10.5764C0.882166 10.7557 0.905705 10.9395 0.977277 11.1052C1.1223 11.4442 1.44678 11.662 1.8048 11.662H3.61754V18.2347C3.61754 18.4837 3.71304 18.7225 3.88301 18.8986C4.05299 19.0747 4.28353 19.1736 4.52392 19.1736H7.24304C7.48342 19.1736 7.71396 19.0747 7.88394 18.8986C8.05392 18.7225 8.14941 18.4837 8.14941 18.2347V14.4789H11.7749V18.2347C11.7749 18.4837 11.8704 18.7225 12.0404 18.8986C12.2104 19.0747 12.4409 19.1736 12.6813 19.1736H15.4004C15.6408 19.1736 15.8713 19.0747 16.0413 18.8986C16.2113 18.7225 16.3068 18.4837 16.3068 18.2347V11.662H18.1195C18.2951 11.6628 18.467 11.6106 18.6144 11.5119C18.7618 11.4132 18.8784 11.2722 18.9497 11.1061C19.0211 10.9399 19.0443 10.7559 19.0165 10.5763C18.9886 10.3968 18.911 10.2295 18.793 10.0949Z" fill="#544A0C"/>
</svg>
